PathFileType	4	(X/Y/Z)	Patient4_TMGait_0pt8_01_right_25.trc.trc
DataRate	CameraRate	NumFrames	NumMarkers	Units	OrigDataRate	OrigDataStartFrame	OrigNumFrames
89.743589743590	89.743589743590	6	33	mm	89.743589743590	89	       141
Frame#	Time	Sacral			L.Shoulder			Chest			R.Shoulder			Neck			R.ASIS			L.ASIS			R.Thigh.Superior			R.Thigh.Lateral			R.Thigh.Inferior			R.Patella			L.Thigh.Superior			L.Thigh.Lateral			L.Thigh.Inferior			L.Patella			L.Shank.Superior			L.Shank.Lateral			L.Shank.Inferior			R.Shank.Superior			R.Shank.Lateral			R.Shank.Inferior			R.Heel			R.Midfoot.Superior			R.Midfoot.Lateral			R.Toe			L.Heel			L.Midfoot.Lateral			L.Midfoot.Superior			L.Toe			L.Elbow			L.Wrist			R.Elbow			R.Wrist			
		X1	Y1	Z1	X2	Y2	Z2	X3	Y3	Z3	X4	Y4	Z4	X5	Y5	Z5	X6	Y6	Z6	X7	Y7	Z7	X8	Y8	Z8	X9	Y9	Z9	X10	Y10	Z10	X11	Y11	Z11	X12	Y12	Z12	X13	Y13	Z13	X14	Y14	Z14	X15	Y15	Z15	X16	Y16	Z16	X17	Y17	Z17	X18	Y18	Z18	X19	Y19	Z19	X20	Y20	Z20	X21	Y21	Z21	X22	Y22	Z22	X23	Y23	Z23	X24	Y24	Z24	X25	Y25	Z25	X26	Y26	Z26	X27	Y27	Z27	X28	Y28	Z28	X29	Y29	Z29	X30	Y30	Z30	X31	Y31	Z31	X32	Y32	Z32	X33	Y33	Z33	

89	28.930571428571	903.374864584282	1002.694413722245	430.683573528124	1054.225447845180	1428.366700977387	243.953082487601	1171.966997265641	1363.197545474584	396.926559305056	1101.739558395046	1438.991977579137	575.368384421224	1050.469855059279	1491.395224243300	399.985453149543	1130.013541479397	934.481252507585	540.235272364720	1113.282212208970	958.845726835548	267.823148423095	1168.404721184736	731.168853695709	524.608274703445	1086.468374053201	622.523846527951	590.779397883808	1171.408148813237	561.611631351641	522.751106933254	1157.297164518858	449.867823080698	543.679194376553	1181.731812739369	761.640792684287	289.711121854976	1102.535544959328	635.823050216334	237.023778875891	1202.304571925741	570.192122825970	292.565551080387	1212.023712884113	501.659153811895	301.456938352265	1191.680828098967	426.860109240024	298.100662594215	1109.462960388082	301.898829138409	259.973910137655	1182.320190471417	199.773514703352	327.926239301019	1070.817576332818	388.914108554672	541.898150466402	940.931901054117	367.304106202473	593.758898723687	915.876711613677	261.880718765517	541.357850881112	707.797243440091	218.494733496571	494.418454297974	870.395876608327	156.308037699078	555.538125233934	757.215711833210	162.194745304265	577.213331368246	926.178544831420	45.407821424786	594.758995719629	1074.452955737346	39.027116046494	386.774148452720	1143.421239600270	35.190027644418	301.228458693887	1225.903326471596	99.599685474339	321.510610596339	1353.560189474488	51.430633956849	288.903865892205	961.021357247483	1082.864626726621	152.973937412242	957.555652789888	824.853304572018	163.291652274981	1222.968825702936	1114.095987267544	681.257999659119	1451.928049536011	1188.396865757962	612.209541895398	
90	28.941714285714	902.125168677022	1003.931372802862	427.926250583156	1055.458928629937	1429.791196719457	241.638051592394	1171.184174808254	1364.683730607261	396.160733135950	1098.754549633799	1440.543726405390	573.763183136802	1049.699415461752	1492.996268527315	397.603494053589	1128.368570188176	936.065517761060	539.117208576913	1112.969919970386	960.416746833297	266.559231567213	1172.639439589171	735.673497635629	524.720646935597	1093.765500380747	625.376682598024	591.210211152157	1181.300664847211	566.312976284158	524.305581440962	1169.541259893603	453.631329373945	545.573946499551	1178.508088645821	760.963014744058	287.590764948920	1097.429454908836	636.496704730590	235.489330572255	1196.227384860894	569.614064285469	291.027777292742	1204.901664187409	501.074221668502	299.684771427607	1184.080202108029	426.592497511938	296.579217670671	1100.725138987069	302.063801689234	259.343817607605	1173.590339550844	199.690618086854	327.005678273704	1082.267022927100	392.403958555579	542.619054776471	951.165559284193	373.321811597063	592.748765562951	924.778497816031	268.389593902376	540.281744305674	716.523651340544	229.620674982437	490.915275198779	877.058355871288	163.463561744526	553.562973963276	763.719922222698	171.915305020090	574.127449749692	930.041925214642	49.961297919741	593.356978514763	1065.390873484661	39.077074529843	386.595906434603	1134.372010260169	35.053866217200	301.106242294701	1216.913725165176	99.580727885563	321.143478638373	1344.558219145725	51.284626378592	288.809971296164	970.717227823838	1082.234413376903	147.320336191195	978.326633315643	824.070317853488	155.850652975698	1209.740734382994	1111.616727595331	681.501206921879	1442.251992130047	1174.982964302491	613.061796606824	
91	28.952857142857	900.763520519703	1005.053766240824	425.337519902345	1056.628166294467	1430.987910682044	239.412696187398	1170.327563717595	1365.976947129404	395.475825187718	1095.720068036448	1441.908406765696	572.231820734653	1048.880372029812	1494.415430046838	395.311323662330	1126.659226370998	937.509292633907	538.117111945203	1112.518962775811	961.845483414496	265.404170720504	1176.529948403455	740.293321100047	524.844754240193	1100.760503363872	628.521726575673	591.820642288799	1190.690035975932	571.393512752681	525.935842307231	1181.457834773898	457.910691956188	547.571259534957	1175.098486374059	760.395390238780	286.058068641860	1092.471692022469	637.218359055956	234.040333343105	1190.176221030424	569.105954784970	289.711082349126	1197.806702502067	500.517422166717	298.085616529797	1176.548103855605	426.349728438486	295.195890034402	1092.123971772850	302.266061303406	258.756795943987	1164.951694232656	199.624759746208	326.146207579912	1093.737354977498	396.191544347331	543.582166019992	961.671598293113	378.851777267625	592.060427554784	934.511964863257	274.290923701613	539.459468799013	726.363765923673	238.689919120985	487.853513299933	885.196545229180	169.812138125852	551.761867942983	771.806572910771	179.965421194882	571.367694092448	936.214520104574	54.653641071287	591.996968677438	1056.355457408518	39.149173217698	386.419000485178	1125.354374284160	34.936469546900	300.991139652961	1207.974445782527	99.557050179694	320.791962458742	1335.589411310656	51.099671419010	288.725711866474	980.802998045909	1081.613324964921	141.703790782682	999.574280099259	823.787967098960	148.444792091888	1195.962123531497	1109.248286078472	681.825329863147	1431.803287159283	1160.652382564658	614.239514254274	
92	28.964000000000	899.322938884046	1006.064715777850	422.921285326245	1057.682704070579	1431.953605702635	237.295286816664	1169.397018729772	1367.080786391318	394.851232312531	1092.680566643061	1443.087396650723	570.769548959511	1048.016111057649	1495.648735053909	393.113751054605	1124.907803238169	938.823001171328	537.200781817445	1111.945767552507	963.134263649602	264.335912955939	1180.057164461452	744.983248115627	524.904360260379	1107.442905908754	631.897005499857	592.558514209617	1199.552128135783	576.781161022950	527.567891569982	1192.994372408501	462.634239527603	549.628506505755	1171.602497399407	759.945974014466	285.041241661378	1087.668793340654	637.956841672018	232.685089347754	1184.206440155880	568.645687535764	288.565504036560	1190.809061791189	499.986756978793	296.655331692333	1169.144514430295	426.121796636753	293.952523712591	1083.700282711228	302.503562786193	258.224084747861	1156.425914443655	199.567817022471	325.360169379443	1105.179129100077	400.207789784687	544.771226307828	972.399842907801	383.768420578560	591.727883906474	945.042767732366	279.427629154465	538.958215111465	737.224055094863	245.528739458735	485.365190569180	894.811901382865	175.133353163169	550.288689301074	781.415823282213	186.144578261727	569.080889822979	944.691422221628	59.148270915187	590.827184966883	1047.348949183315	39.236413754525	386.247901061458	1116.368629351593	34.843182130476	300.885148523977	1199.077194628929	99.532990968371	320.465533985843	1326.647247430079	50.900742616447	288.649359913219	991.315810167864	1081.025894306273	136.159880882494	1021.195166233962	824.042156407163	141.113915300145	1181.705450992359	1107.038994580361	682.197305714581	1420.519214372188	1145.460430030593	615.766266527946	
93	28.975142857143	897.834290583499	1006.961652198786	420.681704550380	1058.574824721181	1432.691818950920	235.299191419406	1168.390225869754	1368.004843794688	394.266923121535	1089.669754053198	1444.088350189623	569.370405232798	1047.107012017747	1496.697336381775	391.012053527418	1123.133867796925	940.016540248090	536.342873914067	1111.265233845020	964.287535304616	263.341586188300	1183.219807623715	749.698185094813	524.855869026875	1113.806466568741	635.435195885814	593.373934205383	1207.878010934155	582.395125549611	529.138335140040	1204.107283849609	467.724370701662	551.691937639208	1168.106421395109	759.599599478380	284.444643837984	1083.009641876175	638.681622406926	231.428461913828	1178.349221957881	568.206547030636	287.549868348156	1183.949670278100	499.475366624654	295.389188485221	1161.901424636371	425.896667247113	292.850658968138	1075.474047173119	302.767977081109	257.752000645564	1148.018386285231	199.510215262052	324.658406954687	1116.548088332924	404.375342981313	546.151608758838	983.304796417373	387.972670740329	591.766638241654	956.323605370759	283.680038641842	538.830282113724	749.016153953176	250.041163153106	483.558754166724	905.876982933843	179.278852195354	549.289723911215	792.473452559877	190.337808697719	567.397346526216	955.417390712725	63.144831990687	589.997267784370	1038.369411055446	39.331736795947	386.087516594555	1107.411531469684	34.775120430948	300.790844106484	1190.211994519230	99.509358276576	320.172782915602	1317.724586498750	50.703399457057	288.581022076137	1002.270028358113	1080.514895031139	130.728252398439	1043.084846469285	824.867289658985	133.898186010126	1167.049876256252	1105.044174376922	682.580600101195	1408.337281677937	1129.467258855323	617.661953674876	
94	28.986285714286	896.322141411268	1007.736289728732	418.623048183956	1059.265339397671	1433.210696030772	233.431776385623	1167.304498972114	1368.761845461026	393.705469695799	1086.711409118040	1444.922993487352	568.028122650774	1046.152138828896	1497.566254569231	389.005416953275	1121.353990217356	941.096658830700	535.528343005466	1110.489554173623	965.310456490455	262.416379194686	1186.026423604648	754.392409561899	524.685804766232	1119.844131777127	639.067720077834	594.221770290136	1215.663803340941	588.148514205178	530.593325009182	1214.756565594158	473.099915102459	553.700496459824	1164.676967390014	759.326441998028	284.162454890789	1078.474646988084	639.366899760320	230.271519308593	1172.615921051156	567.762569402628	286.635492909921	1177.244262046857	498.973908284394	294.282634490724	1154.827381905900	425.662159223319	291.890108115015	1067.447089898858	303.047514713378	257.342654488342	1139.721806846828	199.442224662377	324.048876975690	1127.800214678193	408.612747521414	547.673603352801	994.342041132315	391.395796430898	592.174539253723	968.295140226337	286.970238693709	539.111246869496	761.660760809474	252.202576029009	482.515567176301	918.337375396431	182.171827031987	548.888330110123	804.896823527908	192.510635455781	566.422810102403	968.295869699135	66.412659296571	589.643053193282	1029.411732471078	39.428705052657	385.942255759283	1098.477686202092	34.730240608519	300.710693748894	1181.368619292046	99.484685612398	319.920403758826	1308.814766267117	50.515235183854	288.521861930378	1013.651712676006	1080.135694722078	125.452055934351	1065.137194207196	826.294543096490	126.838698187884	1152.084594668690	1103.320803284450	682.937893419454	1395.196014417550	1112.740540645675	619.941594720586	
